<?xml version="1.0" encoding="UTF-8" standalone="no"?>
<!-- Created with Inkscape (http://www.inkscape.org/) -->

<svg
   width="210mm"
   height="297mm"
   viewBox="0 0 210 297"
   version="1.1"
   id="svg1"
   inkscape:version="1.3 (0e150ed, 2023-07-21)"
   sodipodi:docname="storyboard.svg"
   xmlns:inkscape="http://www.inkscape.org/namespaces/inkscape"
   xmlns:sodipodi="http://sodipodi.sourceforge.net/DTD/sodipodi-0.dtd"
   xmlns="http://www.w3.org/2000/svg"
   xmlns:svg="http://www.w3.org/2000/svg">
  <sodipodi:namedview
     id="namedview1"
     pagecolor="#505050"
     bordercolor="#eeeeee"
     borderopacity="1"
     inkscape:showpageshadow="0"
     inkscape:pageopacity="0"
     inkscape:pagecheckerboard="0"
     inkscape:deskcolor="#505050"
     inkscape:document-units="mm"
     inkscape:zoom="1.6822917"
     inkscape:rotation="90"
     inkscape:cx="637.22601"
     inkscape:cy="575.70279"
     inkscape:window-width="1600"
     inkscape:window-height="837"
     inkscape:window-x="0"
     inkscape:window-y="31"
     inkscape:window-maximized="1"
     inkscape:current-layer="layer1" />
  <defs
     id="defs1" />
  <g
     inkscape:label="Layer 1"
     inkscape:groupmode="layer"
     id="layer1">
    <rect
       style="display:inline;fill:#ffffff;stroke-width:0.264583"
       id="rect1"
       width="209.237"
       height="299.53714"
       x="1.0592707"
       y="-0.21245189"
       sodipodi:insensitive="true"
       inkscape:label="background" />
    <rect
       style="fill:#cccccc;stroke:none;stroke-width:1.71979;stroke-dasharray:none;stroke-opacity:1"
       id="rect11"
       width="30.831573"
       height="90.418831"
       x="121.7586"
       y="6.9930835" />
    <g
       id="g11"
       inkscape:label="frames"
       sodipodi:insensitive="true">
      <rect
         style="fill:none;stroke:#000000;stroke-width:1.04212;stroke-dasharray:none;stroke-opacity:1"
         id="rect3"
         width="81.091034"
         height="89.676071"
         x="122.62878"
         y="7.6408496" />
      <rect
         style="fill:none;stroke:#000000;stroke-width:1.04212;stroke-dasharray:none;stroke-opacity:1"
         id="rect4"
         width="81.091034"
         height="89.676071"
         x="122.27323"
         y="107.39054" />
      <rect
         style="fill:none;stroke:#000000;stroke-width:1.04212;stroke-dasharray:none;stroke-opacity:1"
         id="rect5"
         width="81.091034"
         height="89.676071"
         x="121.52338"
         y="205.46672" />
    </g>
    <rect
       style="fill:#cccccc;stroke:none;stroke-width:1.71979;stroke-dasharray:none;stroke-opacity:1"
       id="rect12"
       width="48.793816"
       height="26.304047"
       x="144.75789"
       y="8.6324387" />
    <rect
       style="fill:#cccccc;stroke:none;stroke-width:1.71979;stroke-dasharray:none;stroke-opacity:1"
       id="rect13"
       width="28.506777"
       height="11.60675"
       x="149.73073"
       y="32.829308" />
    <rect
       style="fill:#cccccc;stroke:none;stroke-width:1.71979;stroke-dasharray:none;stroke-opacity:1"
       id="rect14"
       width="44.625717"
       height="13.844241"
       x="152.02943"
       y="41.944099" />
    <rect
       style="fill:#cccccc;stroke:none;stroke-width:1.71979;stroke-dasharray:none;stroke-opacity:1"
       id="rect15"
       width="38.705463"
       height="14.791648"
       x="150.65125"
       y="54.412048" />
    <rect
       style="fill:#cccccc;stroke:none;stroke-width:1.71979;stroke-dasharray:none;stroke-opacity:1"
       id="rect16"
       width="48.570164"
       height="12.927332"
       x="152.15587"
       y="67.185463" />
    <rect
       style="fill:#cccccc;stroke:none;stroke-width:1.71979;stroke-dasharray:none;stroke-opacity:1"
       id="rect17"
       width="34.592655"
       height="17.143351"
       x="147.61494"
       y="75.74218" />
    <rect
       style="fill:#b3b3b3;stroke:none;stroke-width:1.71979;stroke-dasharray:none;stroke-opacity:1"
       id="rect18"
       width="47.362839"
       height="6.6315775"
       x="150.78925"
       y="89.714272" />
    <rect
       style="fill:#b3b3b3;stroke:none;stroke-width:1.71979;stroke-dasharray:none;stroke-opacity:1"
       id="rect19"
       width="52.13448"
       height="10.32391"
       x="147.20636"
       y="8.4523458" />
    <rect
       style="fill:#b3b3b3;stroke:none;stroke-width:1.71979;stroke-dasharray:none;stroke-opacity:1"
       id="rect20"
       width="37.581814"
       height="15.650826"
       x="147.47479"
       y="13.093375" />
    <rect
       style="fill:#b3b3b3;stroke:none;stroke-width:1.71979;stroke-dasharray:none;stroke-opacity:1"
       id="rect21"
       width="56.701328"
       height="4.928266"
       x="146.73871"
       y="27.795282" />
    <rect
       style="fill:#b3b3b3;stroke:none;stroke-width:1.71979;stroke-dasharray:none;stroke-opacity:1"
       id="rect22"
       width="41.216805"
       height="13.691679"
       x="146.19008"
       y="35.473179" />
    <rect
       style="fill:#b3b3b3;stroke:none;stroke-width:1.71979;stroke-dasharray:none;stroke-opacity:1"
       id="rect23"
       width="24.468365"
       height="15.142556"
       x="144.73781"
       y="28.368658" />
    <rect
       style="fill:#b3b3b3;stroke:none;stroke-width:1.71979;stroke-dasharray:none;stroke-opacity:1"
       id="rect24"
       width="55.641136"
       height="27.431583"
       x="146.41066"
       y="46.057831" />
    <rect
       style="fill:#b3b3b3;stroke:none;stroke-width:1.71979;stroke-dasharray:none;stroke-opacity:1"
       id="rect25"
       width="38.726067"
       height="22.533676"
       x="146.15596"
       y="68.924698" />
    <rect
       style="fill:#b3b3b3;stroke:none;stroke-width:1.71979;stroke-dasharray:none;stroke-opacity:1"
       id="rect26"
       width="12.526914"
       height="89.093025"
       x="143.82323"
       y="7.5227461" />
    <rect
       style="fill:#333333;stroke:none;stroke-width:1.71979;stroke-dasharray:none;stroke-opacity:1"
       id="rect27"
       width="13.896164"
       height="7.0678096"
       x="122.81728"
       y="8.2986364" />
    <rect
       style="fill:#333333;stroke:none;stroke-width:1.71979;stroke-dasharray:none;stroke-opacity:1"
       id="rect30"
       width="18.625307"
       height="40.441063"
       x="122.58944"
       y="13.91721" />
    <rect
       style="fill:#333333;stroke:none;stroke-width:1.71979;stroke-dasharray:none;stroke-opacity:1"
       id="rect31"
       width="13.466248"
       height="45.606663"
       x="122.04912"
       y="52.363655" />
    <path
       style="fill:#4d4d4d;stroke:none;stroke-width:1.71979;stroke-dasharray:none;stroke-opacity:1"
       d="m 142.2201,55.756714 -2.4821,1.83502 -0.2988,1.30859 -0.12202,10.428822 -0.0375,1.859687 1.04664,1.409055 0.64205,-0.754285 1.10997,-7.185798 1.30307,-3.780186 0.0884,-7.610695 z"
       id="path32" />
    <ellipse
       style="fill:#333333;stroke:none;stroke-width:1.71979;stroke-dasharray:none;stroke-opacity:1"
       id="path33"
       cx="140.27872"
       cy="56.849632"
       rx="1.8442786"
       ry="2.0881264" />
    <circle
       style="fill:#333333;stroke:none;stroke-width:1.71979;stroke-dasharray:none;stroke-opacity:1"
       id="path34"
       cx="139.95367"
       cy="69.188385"
       r="1.7157556" />
    <path
       style="fill:#800000;stroke:none;stroke-width:1.71979;stroke-dasharray:none;stroke-opacity:1"
       d="m 143.25006,61.114564 -0.14691,4.555241 -1.5028,1.912326 -0.12639,-3.07848 z"
       id="path35" />
    <path
       style="fill:#333333;stroke:none;stroke-width:1.71979;stroke-dasharray:none;stroke-opacity:1"
       d="m 140.34367,72.563291 1.54183,-1.653966 0.52109,-11.762362 -1.05468,1.820664 -0.88255,4.390403 z"
       id="path36" />
    <path
       style="fill:#333333;stroke:none;stroke-width:1.71979;stroke-dasharray:none;stroke-opacity:1"
       d="m 142.09609,71.726556 c -0.10248,8.05628 -0.12046,8.09775 -0.12046,8.09775 l -1.16216,-2.122384 2.18637,-0.02466 -1.07648,2.08394 z"
       id="path37" />
    <path
       style="fill:#333333;stroke:none;stroke-width:1.71979;stroke-dasharray:none;stroke-opacity:1"
       d="m 122.72877,108.19642 c 27.96119,22.44991 28.18267,22.24795 28.18267,22.24795 l 0.4519,44.41429 -28.91738,21.99627 53.45797,0.0875 -14.37585,-18.91962 -0.78742,-46.40206 23.02578,-24.04218 -59.83114,-0.46724"
       id="path38" />
    <g
       id="g40"
       inkscape:label="volante">
      <path
         style="fill:#999999;stroke:none;stroke-width:1.71979;stroke-dasharray:none;stroke-opacity:1"
         d="m 168.74492,140.50173 -4.2986,-5.17645 h -16.34479 l -3.81454,3.81455 h 5.70671 v 21.69768 h -5.86726 l 4.47132,4.47132 h 17.2816 l 3.54543,-6.14085 h -7.43919 l 2.21278,-3.83265 v -13.04419 l -2.75855,-1.59265 z"
         id="path39" />
      <path
         style="fill:#333333;stroke:none;stroke-width:1.71979;stroke-dasharray:none;stroke-opacity:1;fill-opacity:1"
         d="m 160.64865,143.7935 -3.72174,-1.64388 -3.58081,-0.041 0.21101,15.82938 h 3.6574 l 3.46536,-2.00073 z"
         id="path40" />
      <ellipse
         style="fill:#333333;fill-opacity:1;stroke:none;stroke-width:1.71979;stroke-dasharray:none;stroke-opacity:1"
         id="path41"
         cx="160.03572"
         cy="138.9686"
         rx="0.5085873"
         ry="0.49164563" />
      <ellipse
         style="fill:#333333;fill-opacity:1;stroke:none;stroke-width:1.71979;stroke-dasharray:none;stroke-opacity:1"
         id="ellipse41"
         cx="152.52977"
         cy="139.18764"
         rx="0.5085873"
         ry="0.49164563" />
      <ellipse
         style="fill:#333333;fill-opacity:1;stroke:none;stroke-width:1.71979;stroke-dasharray:none;stroke-opacity:1"
         id="ellipse42"
         cx="160.00002"
         cy="159.85269"
         rx="0.5085873"
         ry="0.49164563" />
      <ellipse
         style="fill:#333333;fill-opacity:1;stroke:none;stroke-width:1.71979;stroke-dasharray:none;stroke-opacity:1"
         id="ellipse43"
         cx="152.49406"
         cy="160.07173"
         rx="0.5085873"
         ry="0.49164563" />
    </g>
    <path
       style="fill:#550000;fill-opacity:1;stroke:none;stroke-width:1.71979;stroke-dasharray:none;stroke-opacity:1"
       d="m 202.31411,109.04312 -18.37503,-0.17589 -22.31127,22.96564 -0.41427,2.38602 4.38798,0.26553 3.81401,5.68576 -6.35139,0.97305 2.10284,0.74696 -0.46943,14.47585 -1.2757,1.5772 6.65187,0.70141 -3.29243,7.58281 -4.55642,-0.74931 -0.0858,11.09213 13.24827,18.98598 26.47945,0.17974 z"
       id="path43" />
    <path
       style="fill:#ffaaaa;fill-opacity:1;stroke:none;stroke-width:1.71979;stroke-dasharray:none;stroke-opacity:1"
       d="m 200.02876,111.03838 -14.84294,-0.52225 -22.37863,22.29832 2.96969,-0.31455 5.58714,7.80351 0.37691,19.42045 -3.71446,6.73307 -4.264,0.67171 -0.26878,9.0244 12.92561,18.55794 24.3727,-0.0767 z"
       id="path44" />
    <path
       style="fill:#ff0000;fill-opacity:1;stroke:none;stroke-width:1.71979;stroke-dasharray:none;stroke-opacity:1"
       d="M 179.85552,108.81946 159.999,129.56169 152.15335,129.2974 125.71802,108.66343 Z"
       id="path45" />
    <path
       style="fill:#ff0000;fill-opacity:1;stroke:none;stroke-width:1.71979;stroke-dasharray:none;stroke-opacity:1"
       d="m 159.32765,177.0251 c -1.29952,-0.24931 -6.72381,-0.26172 -6.72381,-0.26172 l -26.96276,19.4702 47.5918,0.1443 z"
       id="path46" />
    <path
       style="fill:#ff8080;fill-opacity:1;stroke:none;stroke-width:1.71979;stroke-dasharray:none;stroke-opacity:1"
       d="m 176.74507,110.04512 -17.26723,18.17372 -7.52419,-0.64138 -22.9654,-18.07252 3.18806,-0.37633 20.39159,16.82812 6.85853,0.40938 15.42977,-17.56121 0.8041,1.02501"
       id="path47" />
    <path
       style="fill:#ff8080;fill-opacity:1;stroke:none;stroke-width:1.71979;stroke-dasharray:none;stroke-opacity:1"
       d="m 157.88146,177.8069 -5.38604,0.31455 -25.25785,17.09244 3.99193,-0.52075 22.51231,-15.17092 4.26739,0.47182 9.82073,15.31538 3.7952,0.095 -11.87398,-17.01773"
       id="path48" />
    <path
       style="fill:#ff8080;fill-opacity:1;stroke:none;stroke-width:1.71979;stroke-dasharray:none;stroke-opacity:1"
       d="m 172.74229,109.47679 -38.46438,0.64845 19.18987,14.51621 1.96664,-0.63463 -17.23278,-12.87785 h 3.89212 l 10.35106,8.58099 h 3.68388 l -8.40964,-8.40964 h 22.94724 z"
       id="path49" />
    <path
       style="fill:#ff8080;fill-opacity:1;stroke:none;stroke-width:1.71979;stroke-dasharray:none;stroke-opacity:1"
       d="m 154.06399,181.2777 h -2.00841 l -19.00867,13.8798 h 33.66812 l -1.48535,-2.5727 h -18.31229 l 6.42226,-6.42225 h -3.44068 l -5.35908,5.35908 h -2.47648 z"
       id="path50" />
    <path
       style="fill:#de8787;fill-opacity:1;stroke:none;stroke-width:1.71979;stroke-dasharray:none;stroke-opacity:1"
       d="m 172.14136,123.29201 19.84695,19.84695 v 24.64311 l -20.18686,20.18686 -7.37332,-12.77096 1.77647,-6.62987 2.44788,-2.44788 2.95625,-5.12037 v -22.75973 l -5.52492,-5.52492 -1.01047,-1.75019 3.69156,-4.43573"
       id="path51" />
    <rect
       style="fill:#c83737;fill-opacity:1;stroke:none;stroke-width:1.71979;stroke-dasharray:none;stroke-opacity:1"
       id="rect51"
       width="2.2231863"
       height="3.6415665"
       x="188.18486"
       y="152.00497" />
    <rect
       style="fill:#c83737;fill-opacity:1;stroke:none;stroke-width:1.71979;stroke-dasharray:none;stroke-opacity:1"
       id="rect52"
       width="2.9666741"
       height="6.3607116"
       x="183.83801"
       y="150.82948" />
    <rect
       style="fill:#c83737;fill-opacity:1;stroke:none;stroke-width:1.71979;stroke-dasharray:none;stroke-opacity:1"
       id="rect53"
       width="4.0314655"
       height="10.7877"
       x="177.814"
       y="149.13206" />
    <rect
       style="fill:#c83737;fill-opacity:1;stroke:none;stroke-width:1.71979;stroke-dasharray:none;stroke-opacity:1"
       id="rect54"
       width="1.9250213"
       height="16.109932"
       x="173.11327"
       y="145.9357" />
    <rect
       style="fill:#c83737;fill-opacity:1;stroke:none;stroke-width:1.71979;stroke-dasharray:none;stroke-opacity:1"
       id="rect55"
       width="1.1615649"
       height="6.550117"
       x="197.72597"
       y="111.55154" />
    <rect
       style="fill:#c83737;fill-opacity:1;stroke:none;stroke-width:1.71979;stroke-dasharray:none;stroke-opacity:1"
       id="rect56"
       width="0.52591199"
       height="11.581878"
       x="195.92058"
       y="111.99138" />
    <rect
       style="fill:#c83737;fill-opacity:1;stroke:none;stroke-width:1.71979;stroke-dasharray:none;stroke-opacity:1"
       id="rect57"
       width="1.123747"
       height="5.9832883"
       x="193.69939"
       y="112.28986" />
    <rect
       style="fill:#c83737;fill-opacity:1;stroke:none;stroke-width:1.71979;stroke-dasharray:none;stroke-opacity:1"
       id="rect58"
       width="1.0010312"
       height="13.172107"
       x="191.1145"
       y="111.68309" />
    <rect
       style="fill:#c83737;fill-opacity:1;stroke:none;stroke-width:1.71979;stroke-dasharray:none;stroke-opacity:1"
       id="rect59"
       width="1.4237523"
       height="6.0409164"
       x="187.75905"
       y="112.59804" />
    <rect
       style="fill:#c83737;fill-opacity:1;stroke:none;stroke-width:1.71979;stroke-dasharray:none;stroke-opacity:1"
       id="rect60"
       width="0.87686276"
       height="12.801518"
       x="184.88179"
       y="112.70451" />
    <rect
       style="fill:#c83737;fill-opacity:1;stroke:none;stroke-width:1.71979;stroke-dasharray:none;stroke-opacity:1"
       id="rect61"
       width="1.6586094"
       height="20.389303"
       x="198.33687"
       y="173.31142" />
    <rect
       style="fill:#c83737;fill-opacity:1;stroke:none;stroke-width:1.71979;stroke-dasharray:none;stroke-opacity:1"
       id="rect62"
       width="0.84009558"
       height="16.492256"
       x="196.03156"
       y="176.77682" />
    <rect
       style="fill:#c83737;fill-opacity:1;stroke:none;stroke-width:1.71979;stroke-dasharray:none;stroke-opacity:1"
       id="rect63"
       width="0.55451053"
       height="5.0532732"
       x="194.09846"
       y="187.76553" />
    <rect
       style="fill:#c83737;fill-opacity:1;stroke:none;stroke-width:1.71979;stroke-dasharray:none;stroke-opacity:1"
       id="rect64"
       width="1.0983466"
       height="21.261049"
       x="193.07796"
       y="172.09935" />
    <rect
       style="fill:#c83737;fill-opacity:1;stroke:none;stroke-width:1.71979;stroke-dasharray:none;stroke-opacity:1"
       id="rect65"
       width="1.1286949"
       height="7.1072345"
       x="191.53285"
       y="186.25783" />
    <rect
       style="fill:#c83737;fill-opacity:1;stroke:none;stroke-width:1.71979;stroke-dasharray:none;stroke-opacity:1"
       id="rect66"
       width="1.4807721"
       height="15.005939"
       x="188.54976"
       y="177.86908" />
    <rect
       style="fill:#c83737;fill-opacity:1;stroke:none;stroke-width:1.71979;stroke-dasharray:none;stroke-opacity:1"
       id="rect67"
       width="1.3098392"
       height="6.7416768"
       x="185.22943"
       y="185.95789" />
    <rect
       style="fill:#c83737;fill-opacity:1;stroke:none;stroke-width:1.71979;stroke-dasharray:none;stroke-opacity:1"
       id="rect68"
       width="1.4601624"
       height="18.240837"
       x="182.68709"
       y="175.41434" />
    <rect
       style="fill:#c83737;fill-opacity:1;stroke:none;stroke-width:1.71979;stroke-dasharray:none;stroke-opacity:1"
       id="rect69"
       width="0.79502672"
       height="3.9921436"
       x="180.32301"
       y="190.10768" />
    <rect
       style="fill:#c83737;fill-opacity:1;stroke:none;stroke-width:1.71979;stroke-dasharray:none;stroke-opacity:1"
       id="rect70"
       width="0.47910771"
       height="5.1529145"
       x="178.32268"
       y="187.36882" />
    <text
       xml:space="preserve"
       style="font-size:3.77641px;white-space:pre;inline-size:16.8795;fill:#800000;fill-opacity:1;stroke:none;stroke-width:2.04556;stroke-dasharray:none;stroke-opacity:1"
       x="114.84234"
       y="-249.4662"
       id="text70"
       transform="matrix(0,1.4449608,-0.69206032,0,2.7318654,4.2448536)"><tspan
         x="114.84234"
         y="-249.4662"
         id="tspan2"><tspan
           style="font-family:'Cascadia Code PL';-inkscape-font-specification:'Cascadia Code PL'"
           id="tspan1">190 kmh</tspan></tspan></text>
    <rect
       style="fill:#800000;fill-opacity:1;stroke:none;stroke-width:1.71979;stroke-dasharray:none;stroke-opacity:1"
       id="rect71"
       width="0.49436927"
       height="46.541897"
       x="198.4962"
       y="125.35281" />
    <rect
       style="fill:#d40000;fill-opacity:1;stroke:none;stroke-width:1.71979;stroke-dasharray:none;stroke-opacity:1"
       id="rect72"
       width="14.950366"
       height="19.482962"
       x="165.28627"
       y="114.57061" />
    <rect
       style="fill:#ff5555;fill-opacity:1;stroke:none;stroke-width:1.71979;stroke-dasharray:none;stroke-opacity:1"
       id="rect73"
       width="14.396748"
       height="19.026325"
       x="165.59695"
       y="114.79362" />
    <rect
       style="fill:#ff8080;fill-opacity:1;stroke:none;stroke-width:1.71979;stroke-dasharray:none;stroke-opacity:1"
       id="rect74"
       width="3.331996"
       height="0.82048619"
       x="165.57123"
       y="122.26909" />
    <path
       style="fill:#ff8080;fill-opacity:1;stroke:none;stroke-width:1.71979;stroke-dasharray:none;stroke-opacity:1"
       d="m 169.23762,122.33141 4.85086,-0.22829 c 0,0 2.85528,-0.2237 4.42637,0.96569 1.5711,1.18939 1.61306,2.39495 1.61306,2.39495 l -0.12751,1.35446 c 0,0 -1.32696,-3.35548 -3.32932,-3.58698 -2.00235,-0.23151 -7.69678,0.009 -7.69678,0.009 z"
       id="path74"
       sodipodi:nodetypes="ccsccscc" />
    <path
       style="fill:none;fill-opacity:1;stroke:#f37c7c;stroke-width:0.1;stroke-dasharray:none;stroke-opacity:1"
       d="m 175.94574,114.75777 c 0.51833,2.25846 0.68171,-1.212 0.51833,2.51837 -0.16339,3.73037 -0.37058,5.01563 -0.37058,5.01563 l -1.12236,11.50733 -2.49873,0.0892 0.72979,-19.19599 -4.15454,-0.0217 0.10656,19.24916 -3.08987,-0.017 0.79915,-19.16485 -1.34173,-0.0284 -0.17673,1.65254 14.88084,0.4891 -0.048,3.34662 -14.83109,-0.541 0.14805,7.89 c 0,0 11.57404,-1.05551 12.72955,-0.56325 1.15551,0.49226 1.82155,1.01426 1.82155,1.01426 l 0.12381,3.23481 -14.76887,0.31602 0.15113,-3.92457"
       id="path75"
       sodipodi:nodetypes="csccccccccccccccscccc" />
    <path
       style="fill:#800000;fill-opacity:1;stroke:none;stroke-width:1.71979;stroke-dasharray:none;stroke-opacity:1"
       d="m 168.19659,120.37333 1.55405,2.29493 -1.6224,2.2392 0.66218,-2.23461 z"
       id="path73"
       inkscape:label="gps-main" />
    <text
       xml:space="preserve"
       style="font-style:normal;font-variant:normal;font-weight:normal;font-stretch:normal;font-size:3.175px;font-family:'Cascadia Code PL';-inkscape-font-specification:'Cascadia Code PL';fill:#000000;fill-opacity:1;stroke:none;stroke-width:0.1;stroke-dasharray:none;stroke-opacity:1"
       x="147.97485"
       y="58.716763"
       id="text75"><tspan
         sodipodi:role="line"
         id="tspan75"
         style="stroke-width:0.1;stroke:none;fill:#000000;fill-opacity:1"
         x="147.97485"
         y="58.716763" /></text>
    <path
       style="fill:#000000;fill-opacity:1;stroke:none;stroke-width:0.1;stroke-dasharray:none;stroke-opacity:1"
       d="m 152.81163,56.141069 1.60697,3.568605"
       id="path76" />
    <text
       xml:space="preserve"
       style="font-style:normal;font-variant:normal;font-weight:normal;font-stretch:normal;font-size:3.175px;font-family:'Cascadia Code PL';-inkscape-font-specification:'Cascadia Code PL';fill:#000000;fill-opacity:1;stroke:none;stroke-width:0.1;stroke-dasharray:none;stroke-opacity:1"
       x="7.4627404"
       y="-118.9854"
       id="text76"
       transform="rotate(90)"><tspan
         sodipodi:role="line"
         id="tspan76"
         style="stroke-width:0.1"
         x="7.4627404"
         y="-118.9854">un vehiculo futurista </tspan><tspan
         sodipodi:role="line"
         style="stroke-width:0.1"
         x="7.4627404"
         y="-115.01665"
         id="tspan78">avanzando por una autopista</tspan><tspan
         sodipodi:role="line"
         style="stroke-width:0.1"
         x="7.4627404"
         y="-111.0479"
         id="tspan79">a toda velocidad </tspan><tspan
         sodipodi:role="line"
         style="stroke-width:0.1"
         x="7.4627404"
         y="-107.07915"
         id="tspan77" /></text>
    <path
       style="fill:#550000;fill-opacity:1;stroke:none;stroke-width:0.1;stroke-dasharray:none;stroke-opacity:1"
       d="m 188.45748,126.41234 c 0.429,0.0335 6.81849,3.93666 6.81849,3.93666 l -6.93959,4.48218 z"
       id="path79" />
    <ellipse
       style="fill:#800000;fill-opacity:1;stroke:none;stroke-width:0.0691578;stroke-dasharray:none;stroke-opacity:1"
       id="path80"
       cx="189.47893"
       cy="130.24687"
       rx="0.36466697"
       ry="0.36736596" />
    <rect
       style="fill:#800000;fill-opacity:1;stroke:none;stroke-width:0.1;stroke-dasharray:none;stroke-opacity:1"
       id="rect80"
       width="3.1697133"
       height="0.80249196"
       x="190.24501"
       y="129.88312" />
  </g>
</svg>
